<svg width="25" height="24" viewBox="0 0 25 24" fill="none" xmlns="http://www.w3.org/2000/svg">
<rect x="0.875" y="0.375" width="23.25" height="23.25" rx="11.625" fill="#1C1C28"/>
<rect x="0.875" y="0.375" width="23.25" height="23.25" rx="11.625" stroke="black" stroke-width="0.75"/>
<path fill-rule="evenodd" clip-rule="evenodd" d="M15.3839 5.71851H18.1484L9.24785 18.1842H6.5293L15.3839 5.71851ZM12.1363 9.39172L9.53106 5.71851H6.75586L10.7771 11.3953L12.1363 9.39172ZM11.4548 9.39882L10.7671 10.4125L7.83881 6.27851H9.2417L11.4548 9.39882ZM7.61397 17.6242H8.9596L17.0604 6.27851H15.673L7.61397 17.6242Z" fill="white"/>
<path fill-rule="evenodd" clip-rule="evenodd" d="M15.9918 17.6549H17.3362L14.1817 13.1756L13.4837 14.1728L15.9918 17.6549ZM12.7969 14.1774L15.705 18.2149H18.4155L14.1803 12.201L12.7969 14.1774Z" fill="url(#paint0_linear_2352_22817)"/>
<path fill-rule="evenodd" clip-rule="evenodd" d="M12.4703 15.4014C12.5532 15.4014 12.6203 15.4685 12.6203 15.5514L12.6203 15.5615C12.6203 15.6443 12.5532 15.7115 12.4703 15.7115C12.3875 15.7115 12.3203 15.6443 12.3203 15.5615L12.3203 15.5514C12.3203 15.4685 12.3875 15.4014 12.4703 15.4014ZM12.4703 17.0325C12.5532 17.0325 12.6203 17.0997 12.6203 17.1825L12.6203 17.2028C12.6203 17.2857 12.5532 17.3528 12.4703 17.3528C12.3875 17.3528 12.3203 17.2857 12.3203 17.2028L12.3203 17.1825C12.3203 17.0997 12.3875 17.0325 12.4703 17.0325ZM12.4703 18.6739C12.5532 18.6739 12.6203 18.741 12.6203 18.8239L12.6203 18.8441C12.6203 18.927 12.5532 18.9941 12.4703 18.9941C12.3875 18.9941 12.3203 18.927 12.3203 18.8441L12.3203 18.8239C12.3203 18.741 12.3875 18.6739 12.4703 18.6739ZM12.4703 20.3152C12.5532 20.3152 12.6203 20.3823 12.6203 20.4652L12.6203 20.4854C12.6203 20.5683 12.5532 20.6354 12.4703 20.6354C12.3875 20.6354 12.3203 20.5683 12.3203 20.4854L12.3203 20.4652C12.3203 20.3823 12.3875 20.3152 12.4703 20.3152ZM12.4703 21.9565C12.5532 21.9565 12.6203 22.0236 12.6203 22.1065L12.6203 22.1166C12.6203 22.1995 12.5532 22.2666 12.4703 22.2666C12.3875 22.2666 12.3203 22.1995 12.3203 22.1166L12.3203 22.1065C12.3203 22.0236 12.3875 21.9565 12.4703 21.9565Z" fill="#55555E"/>
<path fill-rule="evenodd" clip-rule="evenodd" d="M12.4703 3.2085C12.5532 3.2085 12.6203 3.27565 12.6203 3.3585L12.6203 3.36799C12.6203 3.45083 12.5532 3.51799 12.4703 3.51799C12.3875 3.51799 12.3203 3.45083 12.3203 3.36799L12.3203 3.3585C12.3203 3.27565 12.3875 3.2085 12.4703 3.2085ZM12.4703 4.73703C12.5532 4.73703 12.6203 4.80418 12.6203 4.88703L12.6203 4.90602C12.6203 4.98886 12.5532 5.05602 12.4703 5.05602C12.3875 5.05602 12.3203 4.98886 12.3203 4.90602L12.3203 4.88703C12.3203 4.80418 12.3875 4.73703 12.4703 4.73703ZM12.4703 6.27505C12.5532 6.27505 12.6203 6.34221 12.6203 6.42505L12.6203 6.44404C12.6203 6.52688 12.5532 6.59404 12.4703 6.59404C12.3875 6.59404 12.3203 6.52688 12.3203 6.44404L12.3203 6.42505C12.3203 6.34221 12.3875 6.27505 12.4703 6.27505ZM12.4703 7.81308C12.5532 7.81308 12.6203 7.88023 12.6203 7.96308L12.6203 7.97257C12.6203 8.05541 12.5532 8.12257 12.4703 8.12257C12.3875 8.12257 12.3203 8.05541 12.3203 7.97257L12.3203 7.96308C12.3203 7.88023 12.3875 7.81308 12.4703 7.81308Z" fill="#55555E"/>
<path fill-rule="evenodd" clip-rule="evenodd" d="M22.7617 11.975C22.7617 12.0578 22.6946 12.125 22.6117 12.125L22.6026 12.125C22.5198 12.125 22.4526 12.0578 22.4526 11.975C22.4526 11.8921 22.5198 11.825 22.6026 11.825L22.6117 11.825C22.6946 11.825 22.7617 11.8921 22.7617 11.975ZM21.3006 11.975C21.3006 12.0578 21.2334 12.125 21.1506 12.125L21.1324 12.125C21.0496 12.125 20.9824 12.0578 20.9824 11.975C20.9824 11.8921 21.0496 11.825 21.1324 11.825L21.1506 11.825C21.2334 11.825 21.3006 11.8921 21.3006 11.975ZM19.8303 11.975C19.8303 12.0578 19.7632 12.125 19.6803 12.125L19.6622 12.125C19.5793 12.125 19.5122 12.0578 19.5122 11.975C19.5122 11.8921 19.5793 11.825 19.6622 11.825L19.6803 11.825C19.7632 11.825 19.8303 11.8921 19.8303 11.975ZM18.3601 11.975C18.3601 12.0578 18.2929 12.125 18.2101 12.125L18.1919 12.125C18.1091 12.125 18.0419 12.0578 18.0419 11.975C18.0419 11.8921 18.1091 11.825 18.1919 11.825L18.2101 11.825C18.2929 11.825 18.3601 11.8921 18.3601 11.975ZM16.8899 11.975C16.8899 12.0578 16.8227 12.125 16.7399 12.125L16.7217 12.125C16.6389 12.125 16.5717 12.0578 16.5717 11.975C16.5717 11.8921 16.6389 11.825 16.7217 11.825L16.7399 11.825C16.8227 11.825 16.8899 11.8921 16.8899 11.975ZM15.4196 11.975C15.4196 12.0578 15.3525 12.125 15.2696 12.125L15.2605 12.125C15.1777 12.125 15.1105 12.0578 15.1105 11.975C15.1105 11.8921 15.1777 11.825 15.2605 11.825L15.2696 11.825C15.3525 11.825 15.4196 11.8921 15.4196 11.975Z" fill="#55555E"/>
<path fill-rule="evenodd" clip-rule="evenodd" d="M9.89453 11.975C9.89453 12.0578 9.82737 12.125 9.74453 12.125H9.73538C9.65253 12.125 9.58538 12.0578 9.58538 11.975C9.58538 11.8921 9.65253 11.825 9.73538 11.825H9.74453C9.82737 11.825 9.89453 11.8921 9.89453 11.975ZM8.4206 11.975C8.4206 12.0578 8.35344 12.125 8.2706 12.125H8.25229C8.16945 12.125 8.10229 12.0578 8.10229 11.975C8.10229 11.8921 8.16945 11.825 8.25229 11.825H8.2706C8.35344 11.825 8.4206 11.8921 8.4206 11.975ZM6.93752 11.975C6.93752 12.0578 6.87036 12.125 6.78752 12.125H6.76921C6.68637 12.125 6.61921 12.0578 6.61921 11.975C6.61921 11.8921 6.68637 11.825 6.76921 11.825H6.78752C6.87036 11.825 6.93752 11.8921 6.93752 11.975ZM5.45443 11.975C5.45443 12.0578 5.38728 12.125 5.30443 12.125H5.28612C5.20328 12.125 5.13612 12.0578 5.13612 11.975C5.13612 11.8921 5.20328 11.825 5.28612 11.825H5.30443C5.38728 11.825 5.45443 11.8921 5.45443 11.975ZM3.97135 11.975C3.97135 12.0578 3.90419 12.125 3.82135 12.125H3.80304C3.7202 12.125 3.65304 12.0578 3.65304 11.975C3.65304 11.8921 3.7202 11.825 3.80304 11.825H3.82135C3.90419 11.825 3.97135 11.8921 3.97135 11.975ZM2.48827 11.975C2.48827 12.0578 2.42111 12.125 2.33826 12.125H2.32911C2.24627 12.125 2.17911 12.0578 2.17911 11.975C2.17911 11.8921 2.24627 11.825 2.32911 11.825H2.33826C2.42111 11.825 2.48827 11.8921 2.48827 11.975Z" fill="#55555E"/>
<path fill-rule="evenodd" clip-rule="evenodd" d="M12.4618 1.68335H12.4818C12.5647 1.68343 12.6318 1.75065 12.6317 1.83349C12.6316 1.91634 12.5644 1.98343 12.4815 1.98335H12.4621C12.3792 1.98343 12.312 1.91634 12.3119 1.83349C12.3118 1.75065 12.3789 1.68343 12.4618 1.68335ZM11.044 1.93202C11.0568 2.01388 11.0008 2.09059 10.919 2.10337L10.8998 2.10639C10.8179 2.11933 10.7411 2.06349 10.7282 1.98166C10.7152 1.89983 10.7711 1.82301 10.8529 1.81007L10.8727 1.80696C10.9545 1.79418 11.0312 1.85017 11.044 1.93202ZM13.8996 1.93202C13.9124 1.85017 13.9891 1.79418 14.0709 1.80696L14.0907 1.81007C14.1725 1.82301 14.2284 1.89984 14.2154 1.98166C14.2025 2.06349 14.1257 2.11933 14.0438 2.10639L14.0247 2.10337C13.9428 2.09059 13.8868 2.01388 13.8996 1.93202ZM15.4522 2.27756C15.4777 2.19875 15.5623 2.15553 15.6411 2.18104L15.6601 2.18721C15.7389 2.21287 15.7819 2.29753 15.7563 2.3763C15.7306 2.45506 15.6459 2.49811 15.5672 2.47245L15.5487 2.46646C15.4699 2.44095 15.4267 2.35638 15.4522 2.27756ZM9.49141 2.27756C9.51692 2.35638 9.4737 2.44095 9.39488 2.46646L9.37645 2.47245C9.29768 2.49811 9.21302 2.45506 9.18736 2.3763C9.1617 2.29753 9.20475 2.21287 9.28351 2.18721L9.30251 2.18104C9.38133 2.15553 9.4659 2.19875 9.49141 2.27756ZM16.9308 2.86336C16.9684 2.78954 17.0587 2.76018 17.1326 2.79778L17.1503 2.80685C17.2241 2.84459 17.2533 2.93497 17.2155 3.00871C17.1778 3.08246 17.0874 3.11165 17.0137 3.07391L16.9964 3.0651C16.9226 3.0275 16.8932 2.93718 16.9308 2.86336ZM8.01278 2.86336C8.05038 2.93718 8.02102 3.0275 7.9472 3.0651L7.92995 3.07391C7.85621 3.11165 7.76583 3.08246 7.72809 3.00871C7.69035 2.93497 7.71953 2.84459 7.79328 2.80685L7.81104 2.79778C7.88486 2.76018 7.97518 2.78954 8.01278 2.86336ZM6.64456 3.67407C6.69324 3.7411 6.67837 3.83491 6.61134 3.88359L6.59569 3.89498C6.52875 3.94379 6.43492 3.9291 6.38611 3.86217C6.3373 3.79523 6.35199 3.7014 6.41892 3.65259L6.43504 3.64086C6.50207 3.59217 6.59587 3.60705 6.64456 3.67407ZM18.2991 3.67407C18.3477 3.60705 18.4415 3.59217 18.5086 3.64086L18.5247 3.65259C18.5916 3.7014 18.6063 3.79523 18.5575 3.86217C18.5087 3.9291 18.4149 3.94379 18.3479 3.89498L18.3323 3.88359C18.2652 3.83491 18.2504 3.7411 18.2991 3.67407ZM5.41958 4.68842C5.4781 4.74706 5.47801 4.84203 5.41937 4.90055L5.40568 4.91424C5.34716 4.97288 5.25218 4.97297 5.19355 4.91445C5.13491 4.85593 5.13482 4.76095 5.19334 4.70232L5.20744 4.68822C5.26608 4.62969 5.36105 4.62979 5.41958 4.68842ZM19.524 4.68842C19.5826 4.62979 19.6775 4.62969 19.7362 4.68822L19.7503 4.70232C19.8088 4.76095 19.8087 4.85593 19.7501 4.91445C19.6914 4.97297 19.5965 4.97288 19.5379 4.91424L19.5242 4.90055C19.4656 4.84203 19.4655 4.74706 19.524 4.68842ZM4.36729 5.88098C4.43423 5.92979 4.44892 6.02363 4.40011 6.09056L4.38872 6.10621C4.34003 6.17324 4.24623 6.18811 4.1792 6.13943C4.11217 6.09075 4.0973 5.99694 4.14598 5.92991L4.15772 5.91379C4.20653 5.84686 4.30036 5.83217 4.36729 5.88098ZM20.5763 5.88098C20.6433 5.83217 20.7371 5.84686 20.7859 5.91379L20.7976 5.92991C20.8463 5.99694 20.8314 6.09075 20.7644 6.13943C20.6974 6.18811 20.6036 6.17324 20.5549 6.10621L20.5435 6.09056C20.4947 6.02363 20.5094 5.92979 20.5763 5.88098ZM21.4298 7.22296C21.5035 7.18522 21.5939 7.21441 21.6316 7.28815L21.6407 7.30592C21.6783 7.37974 21.6489 7.47006 21.5751 7.50766C21.5013 7.54525 21.411 7.51589 21.3734 7.44207L21.3646 7.42483C21.3268 7.35108 21.356 7.2607 21.4298 7.22296ZM3.51384 7.22296C3.58759 7.2607 3.61677 7.35108 3.57903 7.42483L3.57023 7.44207C3.53263 7.51589 3.44231 7.54525 3.36849 7.50766C3.29467 7.47006 3.26531 7.37974 3.3029 7.30592L3.31197 7.28815C3.34971 7.21441 3.44009 7.18522 3.51384 7.22296ZM2.88142 8.68223C2.96019 8.70789 3.00324 8.79255 2.97758 8.87132L2.97159 8.88976C2.94608 8.96858 2.86151 9.01179 2.78269 8.98628C2.70387 8.96077 2.66066 8.8762 2.68617 8.79738L2.69233 8.77839C2.718 8.69962 2.80265 8.65657 2.88142 8.68223ZM22.0622 8.68223C22.141 8.65657 22.2256 8.69962 22.2513 8.77839L22.2574 8.79738C22.283 8.8762 22.2397 8.96077 22.1609 8.98628C22.0821 9.01179 21.9975 8.96858 21.972 8.88976L21.966 8.87132C21.9404 8.79255 21.9834 8.70789 22.0622 8.68223ZM2.48679 10.2231C2.56861 10.236 2.62446 10.3128 2.61151 10.3946L2.6085 10.4138C2.59572 10.4957 2.519 10.5517 2.43715 10.5389C2.3553 10.5261 2.29931 10.4494 2.31209 10.3675L2.3152 10.3478C2.32814 10.266 2.40496 10.2101 2.48679 10.2231ZM22.4568 10.2231C22.5386 10.2101 22.6155 10.266 22.6284 10.3478L22.6315 10.3675C22.6443 10.4494 22.5883 10.5261 22.5065 10.5389C22.4246 10.5517 22.3479 10.4957 22.3351 10.4138L22.3321 10.3946C22.3192 10.3128 22.375 10.236 22.4568 10.2231ZM2.33862 11.8068C2.42146 11.8069 2.48856 11.8741 2.48848 11.9569V11.9764C2.48856 12.0593 2.42146 12.1265 2.33862 12.1266C2.25578 12.1266 2.18856 12.0595 2.18848 11.9767V11.9567C2.18856 11.8738 2.25578 11.8067 2.33862 11.8068ZM22.605 11.8068C22.6878 11.8067 22.7551 11.8738 22.7551 11.9567V11.9767C22.7551 12.0595 22.6878 12.1266 22.605 12.1266C22.5221 12.1265 22.4551 12.0593 22.4551 11.9764V11.9569C22.4551 11.8741 22.5221 11.8069 22.605 11.8068ZM2.43715 13.3945C2.519 13.3817 2.59572 13.4377 2.6085 13.5195L2.61151 13.5387C2.62446 13.6205 2.56861 13.6974 2.48679 13.7103C2.40496 13.7232 2.32814 13.6674 2.3152 13.5856L2.31209 13.5658C2.29931 13.484 2.3553 13.4072 2.43715 13.3945ZM22.5065 13.3945C22.5883 13.4072 22.6443 13.484 22.6315 13.5658L22.6284 13.5856C22.6155 13.6674 22.5386 13.7232 22.4568 13.7103C22.375 13.6974 22.3192 13.6205 22.3321 13.5387L22.3351 13.5195C22.3479 13.4377 22.4246 13.3817 22.5065 13.3945ZM2.78269 14.9471C2.86151 14.9216 2.94608 14.9648 2.97159 15.0436L2.97758 15.062C3.00324 15.1408 2.96019 15.2255 2.88142 15.2511C2.80265 15.2768 2.718 15.2337 2.69233 15.155L2.68617 15.136C2.66066 15.0572 2.70387 14.9726 2.78269 14.9471ZM22.1609 14.9471C22.2397 14.9726 22.283 15.0572 22.2574 15.136L22.2513 15.155C22.2256 15.2337 22.141 15.2768 22.0622 15.2511C21.9834 15.2255 21.9404 15.1408 21.966 15.062L21.972 15.0436C21.9975 14.9648 22.0821 14.9216 22.1609 14.9471ZM3.36849 16.4257C3.44231 16.3881 3.53263 16.4175 3.57023 16.4913L3.57903 16.5085C3.61677 16.5823 3.58759 16.6727 3.51384 16.7104C3.44009 16.7481 3.34972 16.719 3.31197 16.6452L3.3029 16.6274C3.26531 16.5536 3.29467 16.4633 3.36849 16.4257ZM21.5751 16.4257C21.6489 16.4633 21.6783 16.5536 21.6407 16.6274L21.6316 16.6452C21.5939 16.719 21.5035 16.7481 21.4298 16.7104C21.356 16.6727 21.3268 16.5823 21.3646 16.5085L21.3734 16.4913C21.411 16.4175 21.5013 16.3881 21.5751 16.4257ZM4.1792 17.7939C4.24623 17.7452 4.34003 17.7601 4.38872 17.8271L4.40011 17.8428C4.44892 17.9097 4.43423 18.0036 4.36729 18.0524C4.30036 18.1012 4.20653 18.0865 4.15772 18.0196L4.14598 18.0034C4.0973 17.9364 4.11217 17.8426 4.1792 17.7939ZM20.7644 17.7939C20.8314 17.8426 20.8463 17.9364 20.7976 18.0034L20.7859 18.0196C20.7371 18.0865 20.6433 18.1012 20.5763 18.0524C20.5094 18.0036 20.4947 17.9097 20.5435 17.8428L20.5549 17.8271C20.6036 17.7601 20.6974 17.7452 20.7644 17.7939ZM5.19355 19.0189C5.25218 18.9604 5.34716 18.9605 5.40568 19.0191L5.41937 19.0328C5.47801 19.0913 5.4781 19.1863 5.41958 19.2449C5.36105 19.3036 5.26608 19.3037 5.20744 19.2451L5.19334 19.231C5.13482 19.1724 5.13491 19.0774 5.19355 19.0189ZM19.7501 19.0189C19.8087 19.0774 19.8088 19.1724 19.7503 19.231L19.7362 19.2451C19.6775 19.3037 19.5826 19.3036 19.524 19.2449C19.4655 19.1863 19.4656 19.0913 19.5242 19.0328L19.5379 19.0191C19.5965 18.9605 19.6914 18.9604 19.7501 19.0189ZM6.38611 20.0712C6.43492 20.0043 6.52875 19.9896 6.59569 20.0384L6.61134 20.0498C6.67837 20.0984 6.69324 20.1923 6.64456 20.2593C6.59587 20.3263 6.50207 20.3412 6.43504 20.2925L6.41892 20.2808C6.35199 20.232 6.3373 20.1381 6.38611 20.0712ZM18.5575 20.0712C18.6063 20.1381 18.5916 20.232 18.5247 20.2808L18.5086 20.2925C18.4415 20.3412 18.3477 20.3263 18.2991 20.2593C18.2504 20.1923 18.2652 20.0985 18.3323 20.0498L18.3479 20.0384C18.4149 19.9896 18.5087 20.0043 18.5575 20.0712ZM7.72809 20.9246C7.76583 20.8509 7.85621 20.8217 7.92995 20.8595L7.9472 20.8683C8.02102 20.9059 8.05038 20.9962 8.01278 21.07C7.97519 21.1438 7.88486 21.1732 7.81104 21.1356L7.79328 21.1265C7.71953 21.0888 7.69035 20.9984 7.72809 20.9246ZM17.2155 20.9246C17.2533 20.9984 17.2241 21.0888 17.1503 21.1265L17.1326 21.1356C17.0587 21.1732 16.9684 21.1438 16.9308 21.07C16.8932 20.9962 16.9226 20.9059 16.9964 20.8683L17.0137 20.8595C17.0874 20.8217 17.1778 20.8509 17.2155 20.9246ZM9.18736 21.5571C9.21302 21.4783 9.29768 21.4352 9.37645 21.4609L9.39489 21.4669C9.4737 21.4924 9.51692 21.577 9.49141 21.6558C9.4659 21.7346 9.38133 21.7778 9.30251 21.7523L9.28351 21.7462C9.20475 21.7205 9.1617 21.6358 9.18736 21.5571ZM15.7563 21.5571C15.7819 21.6358 15.7389 21.7205 15.6601 21.7462L15.6411 21.7523C15.5623 21.7778 15.4777 21.7346 15.4522 21.6558C15.4267 21.577 15.4699 21.4924 15.5487 21.4669L15.5672 21.4609C15.6459 21.4352 15.7306 21.4783 15.7563 21.5571ZM10.7282 21.9517C10.7411 21.8699 10.8179 21.814 10.8998 21.827L10.919 21.83C11.0008 21.8428 11.0568 21.9195 11.044 22.0013C11.0312 22.0832 10.9545 22.1392 10.8727 22.1264L10.8529 22.1233C10.7711 22.1103 10.7152 22.0335 10.7282 21.9517ZM14.2154 21.9517C14.2284 22.0335 14.1725 22.1103 14.0907 22.1233L14.0709 22.1264C13.9891 22.1392 13.9124 22.0832 13.8996 22.0013C13.8868 21.9195 13.9428 21.8428 14.0246 21.83L14.0438 21.827C14.1257 21.814 14.2025 21.8699 14.2154 21.9517ZM12.3119 22.0999C12.312 22.017 12.3792 21.9499 12.4621 21.95H12.4815C12.5644 21.9499 12.6316 22.017 12.6317 22.0999C12.6318 22.1827 12.5647 22.2499 12.4818 22.25H12.4618C12.3789 22.2499 12.3118 22.1827 12.3119 22.0999Z" fill="white"/>
<path d="M12.8047 1.83329C12.8047 2.01739 12.6554 2.16663 12.4714 2.16663C12.2873 2.16663 12.138 2.01739 12.138 1.83329C12.138 1.6492 12.2873 1.49996 12.4714 1.49996C12.6554 1.49996 12.8047 1.6492 12.8047 1.83329Z" fill="#6966FF"/>
<path d="M12.8047 22.0999C12.8047 22.284 12.6554 22.4332 12.4714 22.4332C12.2873 22.4332 12.138 22.284 12.138 22.0999C12.138 21.9158 12.2873 21.7666 12.4714 21.7666C12.6554 21.7666 12.8047 21.9158 12.8047 22.0999Z" fill="#6966FF"/>
<path d="M22.6048 12.3C22.4207 12.3 22.2715 12.1508 22.2715 11.9667C22.2715 11.7826 22.4207 11.6334 22.6048 11.6334C22.7889 11.6334 22.9382 11.7826 22.9382 11.9667C22.9382 12.1508 22.7889 12.3 22.6048 12.3Z" fill="#6966FF"/>
<path d="M2.33822 12.3C2.15412 12.3 2.00488 12.1508 2.00488 11.9667C2.00488 11.7826 2.15412 11.6334 2.33822 11.6334C2.52231 11.6334 2.67155 11.7826 2.67155 11.9667C2.67155 12.1508 2.52231 12.3 2.33822 12.3Z" fill="#6966FF"/>
<defs>
<linearGradient id="paint0_linear_2352_22817" x1="16.3157" y1="17.2684" x2="11.836" y2="11.1133" gradientUnits="userSpaceOnUse">
<stop stop-color="#6966FF"/>
<stop offset="1" stop-color="#6966FF" stop-opacity="0.36"/>
</linearGradient>
</defs>
</svg>
