<svg width="20" height="20" viewBox="0 0 20 20" fill="none" xmlns="http://www.w3.org/2000/svg">
<g id="fi:download-cloud" clip-path="url(#clip0_2352_29127)">
<path id="Vector" d="M6.66699 14.1666L10.0003 17.5L13.3337 14.1666" stroke="white" stroke-width="2" stroke-linecap="round" stroke-linejoin="round"/>
<path id="Vector_2" d="M10 10V17.5" stroke="white" stroke-width="2" stroke-linecap="round" stroke-linejoin="round"/>
<path id="Vector_3" d="M17.3993 15.0749C18.1238 14.5655 18.6671 13.8384 18.9504 12.9992C19.2337 12.1601 19.2422 11.2525 18.9747 10.4081C18.7072 9.5638 18.1776 8.82669 17.4627 8.30375C16.7479 7.7808 15.885 7.49925 14.9993 7.49994H13.9493C13.6987 6.52317 13.2297 5.61598 12.5778 4.84668C11.9258 4.07737 11.1078 3.46599 10.1853 3.05857C9.26289 2.65115 8.26004 2.4583 7.25227 2.49454C6.24451 2.53078 5.25809 2.79517 4.36729 3.2678C3.47649 3.74043 2.70452 4.40898 2.10949 5.22314C1.51446 6.03729 1.11188 6.97582 0.932051 7.96807C0.752225 8.96032 0.799842 9.98044 1.07132 10.9516C1.34279 11.9228 1.83105 12.8198 2.49933 13.5749" stroke="white" stroke-width="2" stroke-linecap="round" stroke-linejoin="round"/>
</g>
<defs>
<clipPath id="clip0_2352_29127">
<rect width="20" height="20" fill="white"/>
</clipPath>
</defs>
</svg>
