<svg width="106" height="106" viewBox="0 0 106 106" fill="none" xmlns="http://www.w3.org/2000/svg">
<path fill-rule="evenodd" clip-rule="evenodd" d="M67.4157 21.5923H81.238L36.7354 83.9207H23.1426L67.4157 21.5923ZM51.1778 39.9584L38.1514 21.5923H24.2754L44.3814 49.9763L51.1778 39.9584ZM47.7702 39.9938L44.3317 45.0621L29.6901 24.3923H36.7046L47.7702 39.9938ZM28.566 81.1207H35.2941L75.7983 24.3923H68.8613L28.566 81.1207Z" fill="black"/>
<path fill-rule="evenodd" clip-rule="evenodd" d="M70.453 81.2748H77.1751L61.4028 58.8781L57.9126 63.8642L70.453 81.2748ZM54.4785 63.8873L69.0191 84.0748H82.5715L61.3959 54.0054L54.4785 63.8873Z" fill="black"/>
<path fill-rule="evenodd" clip-rule="evenodd" d="M53.6074 9.79248C53.6074 9.37827 53.2716 9.04248 52.8574 9.04248C52.4432 9.04248 52.1074 9.37827 52.1074 9.79248V9.83995C52.1074 10.2542 52.4432 10.59 52.8574 10.59C53.2716 10.59 53.6074 10.2542 53.6074 9.83995V9.79248ZM53.6074 17.4351C53.6074 17.0209 53.2716 16.6851 52.8574 16.6851C52.4432 16.6851 52.1074 17.0209 52.1074 17.4351V17.5301C52.1074 17.9443 52.4432 18.2801 52.8574 18.2801C53.2716 18.2801 53.6074 17.9443 53.6074 17.5301V17.4351ZM53.6074 25.1253C53.6074 24.7111 53.2716 24.3753 52.8574 24.3753C52.4432 24.3753 52.1074 24.7111 52.1074 25.1253V25.2202C52.1074 25.6344 52.4432 25.9702 52.8574 25.9702C53.2716 25.9702 53.6074 25.6344 53.6074 25.2202V25.1253ZM53.6074 32.8154C53.6074 32.4012 53.2716 32.0654 52.8574 32.0654C52.4432 32.0654 52.1074 32.4012 52.1074 32.8154V32.8629C52.1074 33.2771 52.4432 33.6129 52.8574 33.6129C53.2716 33.6129 53.6074 33.2771 53.6074 32.8629V32.8154ZM53.6074 70.7563C53.6074 70.3421 53.2716 70.0063 52.8574 70.0063C52.4432 70.0063 52.1074 70.3421 52.1074 70.7563V70.807C52.1074 71.2212 52.4432 71.557 52.8574 71.557C53.2716 71.557 53.6074 71.2212 53.6074 70.807V70.7563ZM53.6074 78.9122C53.6074 78.498 53.2716 78.1622 52.8574 78.1622C52.4432 78.1622 52.1074 78.498 52.1074 78.9122V79.0136C52.1074 79.4278 52.4432 79.7636 52.8574 79.7636C53.2716 79.7636 53.6074 79.4278 53.6074 79.0136V78.9122ZM53.6074 87.1188C53.6074 86.7046 53.2716 86.3688 52.8574 86.3688C52.4432 86.3688 52.1074 86.7046 52.1074 87.1188V87.2201C52.1074 87.6343 52.4432 87.9701 52.8574 87.9701C53.2716 87.9701 53.6074 87.6343 53.6074 87.2201V87.1188ZM53.6074 95.3254C53.6074 94.9111 53.2716 94.5754 52.8574 94.5754C52.4432 94.5754 52.1074 94.9111 52.1074 95.3254V95.4267C52.1074 95.8409 52.4432 96.1767 52.8574 96.1767C53.2716 96.1767 53.6074 95.8409 53.6074 95.4267V95.3254ZM53.6074 103.532C53.6074 103.118 53.2716 102.782 52.8574 102.782C52.4432 102.782 52.1074 103.118 52.1074 103.532V103.583C52.1074 103.997 52.4432 104.333 52.8574 104.333C53.2716 104.333 53.6074 103.997 53.6074 103.583V103.532ZM104.315 52.8745C104.315 53.2887 103.98 53.6245 103.565 53.6245H103.52C103.106 53.6245 102.77 53.2887 102.77 52.8745C102.77 52.4603 103.106 52.1245 103.52 52.1245H103.565C103.98 52.1245 104.315 52.4603 104.315 52.8745ZM97.0096 52.8745C97.0096 53.2887 96.6738 53.6245 96.2596 53.6245H96.1688C95.7546 53.6245 95.4188 53.2887 95.4188 52.8745C95.4188 52.4603 95.7546 52.1245 96.1688 52.1245H96.2596C96.6738 52.1245 97.0096 52.4603 97.0096 52.8745ZM89.6584 52.8745C89.6584 53.2887 89.3226 53.6245 88.9084 53.6245H88.8177C88.4035 53.6245 88.0677 53.2887 88.0677 52.8745C88.0677 52.4603 88.4035 52.1245 88.8177 52.1245H88.9084C89.3226 52.1245 89.6584 52.4603 89.6584 52.8745ZM82.3073 52.8745C82.3073 53.2887 81.9715 53.6245 81.5573 53.6245H81.4665C81.0523 53.6245 80.7165 53.2887 80.7165 52.8745C80.7165 52.4603 81.0523 52.1245 81.4665 52.1245H81.5573C81.9715 52.1245 82.3073 52.4603 82.3073 52.8745ZM74.9561 52.8745C74.9561 53.2887 74.6203 53.6245 74.2061 53.6245H74.1153C73.7011 53.6245 73.3653 53.2887 73.3653 52.8745C73.3653 52.4603 73.7011 52.1245 74.1153 52.1245H74.2061C74.6203 52.1245 74.9561 52.4603 74.9561 52.8745ZM67.6049 52.8745C67.6049 53.2887 67.2691 53.6245 66.8549 53.6245H66.8095C66.3953 53.6245 66.0595 53.2887 66.0595 52.8745C66.0595 52.4603 66.3953 52.1245 66.8095 52.1245H66.8549C67.2691 52.1245 67.6049 52.4603 67.6049 52.8745ZM39.226 53.6245C39.6403 53.6245 39.976 53.2887 39.976 52.8745C39.976 52.4603 39.6403 52.1245 39.226 52.1245H39.1803C38.766 52.1245 38.4303 52.4603 38.4303 52.8745C38.4303 53.2887 38.766 53.6245 39.1803 53.6245H39.226ZM31.8564 53.6245C32.2706 53.6245 32.6064 53.2887 32.6064 52.8745C32.6064 52.4603 32.2706 52.1245 31.8564 52.1245H31.7648C31.3506 52.1245 31.0148 52.4603 31.0148 52.8745C31.0148 53.2887 31.3506 53.6245 31.7648 53.6245H31.8564ZM24.441 53.6245C24.8552 53.6245 25.191 53.2887 25.191 52.8745C25.191 52.4603 24.8552 52.1245 24.441 52.1245H24.3494C23.9352 52.1245 23.5994 52.4603 23.5994 52.8745C23.5994 53.2887 23.9352 53.6245 24.3494 53.6245H24.441ZM17.0255 53.6245C17.4398 53.6245 17.7755 53.2887 17.7755 52.8745C17.7755 52.4603 17.4398 52.1245 17.0255 52.1245H16.934C16.5198 52.1245 16.184 52.4603 16.184 52.8745C16.184 53.2887 16.5198 53.6245 16.934 53.6245H17.0255ZM9.61012 53.6245C10.0243 53.6245 10.3601 53.2887 10.3601 52.8745C10.3601 52.4603 10.0243 52.1245 9.61012 52.1245H9.51857C9.10436 52.1245 8.76857 52.4603 8.76857 52.8745C8.76857 53.2887 9.10436 53.6245 9.51857 53.6245H9.61012ZM2.1947 53.6245C2.60892 53.6245 2.9447 53.2887 2.9447 52.8745C2.9447 52.4603 2.60892 52.1245 2.1947 52.1245H2.14893C1.73471 52.1245 1.39893 52.4603 1.39893 52.8745C1.39893 53.2887 1.73471 53.6245 2.14893 53.6245H2.1947Z" fill="black" fill-opacity="0.3"/>
<path fill-rule="evenodd" clip-rule="evenodd" d="M52.8069 1.4165H52.9072C53.3214 1.4169 53.6569 1.75301 53.6565 2.16722C53.6561 2.58143 53.32 2.9169 52.9058 2.9165H52.8084C52.3942 2.9169 52.0581 2.58143 52.0577 2.16722C52.0573 1.75301 52.3927 1.4169 52.8069 1.4165ZM45.7182 2.65988C45.7821 3.06913 45.5021 3.45271 45.0929 3.51661L44.9969 3.53169C44.5878 3.5964 44.2036 3.31719 44.1389 2.90806C44.0742 2.49893 44.3534 2.11481 44.7626 2.05011L44.8614 2.03457C45.2707 1.97067 45.6543 2.25062 45.7182 2.65988ZM59.996 2.65988C60.0599 2.25063 60.4435 1.97067 60.8527 2.03457L60.9516 2.05011C61.3607 2.11481 61.6399 2.49893 61.5752 2.90806C61.5105 3.31719 61.1264 3.5964 60.7173 3.53169L60.6213 3.51661C60.212 3.45271 59.9321 3.06913 59.996 2.65988ZM67.7591 4.38757C67.8866 3.99348 68.3095 3.77741 68.7036 3.90495L68.7985 3.93579C69.1924 4.06411 69.4076 4.48739 69.2793 4.88123C69.151 5.27507 68.7277 5.49032 68.3339 5.36201L68.2417 5.33207C67.8476 5.20452 67.6315 4.78166 67.7591 4.38757ZM37.9551 4.38757C38.0826 4.78166 37.8666 5.20453 37.4725 5.33207L37.3803 5.36201C36.9864 5.49032 36.5632 5.27507 36.4348 4.88123C36.3065 4.4874 36.5218 4.06411 36.9156 3.93579L37.0106 3.90495C37.4047 3.77741 37.8275 3.99348 37.9551 4.38757ZM75.1522 7.31656C75.3402 6.94747 75.7918 6.80065 76.1609 6.98864L76.2497 7.03399C76.6184 7.2227 76.7644 7.67459 76.5757 8.04332C76.387 8.41205 75.9351 8.55799 75.5663 8.36928L75.4801 8.32526C75.111 8.13727 74.9642 7.68566 75.1522 7.31656ZM30.562 7.31657C30.75 7.68566 30.6031 8.13727 30.234 8.32526L30.1478 8.36928C29.7791 8.55799 29.3272 8.41205 29.1385 8.04332C28.9498 7.67459 29.0957 7.2227 29.4644 7.03399L29.5533 6.98864C29.9224 6.80065 30.374 6.94747 30.562 7.31657ZM23.7208 11.3701C23.9642 11.7053 23.8899 12.1743 23.5547 12.4177L23.4765 12.4747C23.1418 12.7187 22.6727 12.6453 22.4286 12.3106C22.1845 11.9759 22.258 11.5068 22.5927 11.2627L22.6733 11.204C23.0084 10.9606 23.4774 11.035 23.7208 11.3701ZM81.9933 11.3701C82.2367 11.035 82.7058 10.9606 83.0409 11.204L83.1215 11.2627C83.4562 11.5068 83.5296 11.9759 83.2856 12.3106C83.0415 12.6453 82.5723 12.7187 82.2377 12.4747L82.1594 12.4177C81.8243 12.1743 81.7499 11.7053 81.9933 11.3701ZM17.5959 16.4419C17.8885 16.735 17.8881 17.2099 17.5949 17.5025L17.5264 17.571C17.2338 17.8642 16.759 17.8646 16.4658 17.572C16.1726 17.2794 16.1722 16.8045 16.4648 16.5113L16.5353 16.4408C16.8284 16.1482 17.3033 16.1487 17.5959 16.4419ZM88.1182 16.4419C88.4108 16.1487 88.8857 16.1482 89.1789 16.4408L89.2494 16.5113C89.542 16.8045 89.5415 17.2794 89.2484 17.572C88.9552 17.8646 88.4803 17.8642 88.1877 17.571L88.1192 17.5025C87.8261 17.2099 87.8256 16.735 88.1182 16.4419ZM12.3345 22.4047C12.6692 22.6487 12.7426 23.1179 12.4986 23.4526L12.4416 23.5308C12.1982 23.866 11.7292 23.9403 11.3941 23.6969C11.0589 23.4535 10.9846 22.9845 11.228 22.6493L11.2866 22.5687C11.5307 22.2341 11.9998 22.1606 12.3345 22.4047ZM93.3796 22.4047C93.7143 22.1606 94.1835 22.2341 94.4275 22.5687L94.4862 22.6493C94.7296 22.9845 94.6552 23.4535 94.3201 23.6969C93.9849 23.9403 93.5159 23.866 93.2725 23.5308L93.2156 23.4526C92.9715 23.1179 93.045 22.6487 93.3796 22.4047ZM97.6469 29.1146C98.0156 28.9258 98.4675 29.0718 98.6562 29.4405L98.7016 29.5293C98.8896 29.8984 98.7428 30.35 98.3737 30.538C98.0046 30.726 97.5529 30.5792 97.365 30.2101L97.3209 30.1239C97.1322 29.7552 97.2782 29.3033 97.6469 29.1146ZM8.06724 29.1146C8.43598 29.3033 8.58191 29.7552 8.39321 30.1239L8.34918 30.2101C8.1612 30.5792 7.70959 30.726 7.34049 30.538C6.97139 30.35 6.82457 29.8984 7.01256 29.5293L7.05791 29.4405C7.24662 29.0718 7.69851 28.9258 8.06724 29.1146ZM4.90516 36.4109C5.299 36.5392 5.51425 36.9625 5.38593 37.3564L5.35599 37.4485C5.22845 37.8426 4.80558 38.0587 4.4115 37.9312C4.01741 37.8036 3.80133 37.3808 3.92887 36.9867L3.95972 36.8917C4.08803 36.4978 4.51132 36.2826 4.90516 36.4109ZM100.809 36.4109C101.203 36.2826 101.626 36.4978 101.754 36.8917L101.785 36.9867C101.913 37.3808 101.697 37.8036 101.303 37.9312C100.909 38.0587 100.486 37.8426 100.358 37.4485L100.328 37.3564C100.2 36.9625 100.415 36.5392 100.809 36.4109ZM2.93199 44.115C3.34111 44.1797 3.62032 44.5638 3.55562 44.973L3.54054 45.0689C3.47663 45.4782 3.09306 45.7581 2.6838 45.6942C2.27455 45.6303 1.99459 45.2467 2.0585 44.8375L2.07403 44.7386C2.13874 44.3295 2.52286 44.0503 2.93199 44.115ZM102.782 44.115C103.191 44.0503 103.575 44.3295 103.64 44.7387L103.656 44.8375C103.72 45.2468 103.44 45.6303 103.03 45.6942C102.621 45.7581 102.238 45.4782 102.174 45.0689L102.159 44.973C102.094 44.5638 102.373 44.1797 102.782 44.115ZM2.19115 52.0337C2.60536 52.0341 2.94082 52.3702 2.94043 52.7845V52.8818C2.94082 53.2961 2.60536 53.6322 2.19115 53.6326C1.77693 53.633 1.44083 53.2975 1.44043 52.8833V52.783C1.44083 52.3688 1.77693 52.0333 2.19115 52.0337ZM103.523 52.0337C103.937 52.0333 104.273 52.3688 104.274 52.783V52.8833C104.273 53.2975 103.937 53.633 103.523 53.6326C103.109 53.6322 102.773 53.2961 102.774 52.8818V52.7845C102.773 52.3702 103.109 52.0341 103.523 52.0337ZM2.6838 59.9721C3.09306 59.9082 3.47663 60.1881 3.54054 60.5974L3.55562 60.6933C3.62032 61.1025 3.34111 61.4866 2.93198 61.5513C2.52286 61.616 2.13874 61.3368 2.07403 60.9276L2.0585 60.8288C1.99459 60.4195 2.27455 60.036 2.6838 59.9721ZM103.03 59.9721C103.44 60.036 103.72 60.4195 103.656 60.8288L103.64 60.9277C103.575 61.3368 103.191 61.616 102.782 61.5513C102.373 61.4866 102.094 61.1025 102.159 60.6933L102.174 60.5974C102.238 60.1881 102.621 59.9082 103.03 59.9721ZM4.4115 67.7351C4.80559 67.6076 5.22845 67.8237 5.356 68.2178L5.38593 68.3099C5.51425 68.7038 5.299 69.1271 4.90516 69.2554C4.51132 69.3837 4.08803 69.1684 3.95972 68.7746L3.92887 68.6796C3.80133 68.2855 4.01741 67.8627 4.4115 67.7351ZM101.303 67.7351C101.697 67.8627 101.913 68.2855 101.785 68.6796L101.754 68.7746C101.626 69.1684 101.203 69.3837 100.809 69.2554C100.415 69.1271 100.2 68.7038 100.328 68.3099L100.358 68.2178C100.486 67.8237 100.909 67.6076 101.303 67.7351ZM7.34049 75.1283C7.70959 74.9403 8.1612 75.0871 8.34919 75.4562L8.39321 75.5424C8.58192 75.9111 8.43598 76.363 8.06725 76.5517C7.69852 76.7404 7.24662 76.5945 7.05792 76.2258L7.01257 76.137C6.82458 75.7679 6.97139 75.3162 7.34049 75.1283ZM98.3737 75.1283C98.7428 75.3162 98.8896 75.7679 98.7016 76.1369L98.6562 76.2258C98.4675 76.5945 98.0156 76.7404 97.6469 76.5517C97.2782 76.363 97.1322 75.9111 97.3209 75.5424L97.365 75.4562C97.553 75.0871 98.0046 74.9403 98.3737 75.1283ZM11.3941 81.9694C11.7292 81.726 12.1982 81.8003 12.4416 82.1355L12.4986 82.2137C12.7426 82.5484 12.6692 83.0176 12.3345 83.2616C11.9998 83.5057 11.5307 83.4322 11.2866 83.0976L11.228 83.017C10.9845 82.6818 11.0589 82.2128 11.3941 81.9694ZM94.3201 81.9694C94.6552 82.2128 94.7296 82.6818 94.4862 83.017L94.4275 83.0976C94.1835 83.4322 93.7143 83.5057 93.3796 83.2616C93.045 83.0176 92.9715 82.5484 93.2156 82.2137L93.2725 82.1355C93.5159 81.8003 93.9849 81.726 94.3201 81.9694ZM16.4658 88.0943C16.759 87.8017 17.2338 87.8021 17.5264 88.0953L17.5949 88.1638C17.8881 88.4564 17.8885 88.9313 17.5959 89.2244C17.3033 89.5176 16.8284 89.5181 16.5353 89.2255L16.4648 89.155C16.1722 88.8618 16.1726 88.3869 16.4658 88.0943ZM89.2484 88.0943C89.5415 88.3869 89.542 88.8618 89.2494 89.155L89.1789 89.2255C88.8857 89.5181 88.4108 89.5176 88.1182 89.2244C87.8256 88.9313 87.8261 88.4564 88.1192 88.1638L88.1877 88.0953C88.4803 87.8021 88.9552 87.8017 89.2484 88.0943ZM22.4286 93.3557C22.6727 93.021 23.1418 92.9476 23.4765 93.1916L23.5547 93.2486C23.8899 93.492 23.9642 93.961 23.7208 94.2962C23.4774 94.6313 23.0084 94.7057 22.6732 94.4623L22.5927 94.4036C22.258 94.1595 22.1845 93.6904 22.4286 93.3557ZM83.2856 93.3557C83.5296 93.6904 83.4562 94.1595 83.1215 94.4036L83.0409 94.4623C82.7057 94.7057 82.2367 94.6313 81.9933 94.2962C81.7499 93.961 81.8243 93.492 82.1594 93.2486L82.2377 93.1916C82.5723 92.9476 83.0415 93.021 83.2856 93.3557ZM29.1385 97.623C29.3272 97.2542 29.7791 97.1083 30.1478 97.297L30.234 97.341C30.6031 97.529 30.75 97.9806 30.562 98.3497C30.374 98.7188 29.9224 98.8656 29.5533 98.6777L29.4644 98.6323C29.0957 98.4436 28.9498 97.9917 29.1385 97.623ZM76.5757 97.623C76.7644 97.9917 76.6184 98.4436 76.2497 98.6323L76.1609 98.6777C75.7918 98.8656 75.3402 98.7188 75.1522 98.3497C74.9642 97.9806 75.111 97.529 75.4801 97.341L75.5663 97.297C75.9351 97.1083 76.387 97.2542 76.5757 97.623ZM36.4348 100.785C36.5632 100.391 36.9864 100.176 37.3803 100.304L37.4725 100.334C37.8666 100.462 38.0826 100.885 37.9551 101.279C37.8276 101.673 37.4047 101.889 37.0106 101.761L36.9156 101.731C36.5218 101.602 36.3065 101.179 36.4348 100.785ZM69.2793 100.785C69.4076 101.179 69.1924 101.602 68.7985 101.731L68.7036 101.761C68.3095 101.889 67.8866 101.673 67.7591 101.279C67.6315 100.885 67.8476 100.462 68.2417 100.334L68.3339 100.304C68.7277 100.176 69.151 100.391 69.2793 100.785ZM44.1389 102.758C44.2036 102.349 44.5878 102.07 44.9969 102.135L45.0928 102.15C45.5021 102.214 45.7821 102.597 45.7182 103.006C45.6543 103.416 45.2707 103.696 44.8614 103.632L44.7626 103.616C44.3534 103.551 44.0742 103.167 44.1389 102.758ZM61.5752 102.758C61.6399 103.167 61.3607 103.551 60.9516 103.616L60.8527 103.632C60.4435 103.696 60.0599 103.416 59.996 103.006C59.9321 102.597 60.212 102.214 60.6213 102.15L60.7173 102.135C61.1264 102.07 61.5105 102.349 61.5752 102.758ZM52.0577 103.499C52.0581 103.085 52.3942 102.749 52.8084 102.75H52.9058C53.32 102.749 53.6561 103.085 53.6565 103.499C53.6569 103.913 53.3214 104.249 52.9072 104.25H52.8069C52.3927 104.249 52.0573 103.913 52.0577 103.499Z" fill="black"/>
<path d="M54.5239 103.5C54.5239 104.42 53.7777 105.167 52.8573 105.167C51.9368 105.167 51.1906 104.42 51.1906 103.5C51.1906 102.579 51.9368 101.833 52.8573 101.833C53.7777 101.833 54.5239 102.579 54.5239 103.5Z" fill="black"/>
<path d="M103.524 54.5C102.603 54.5 101.857 53.7538 101.857 52.8333C101.857 51.9129 102.603 51.1667 103.524 51.1667C104.444 51.1667 105.19 51.9129 105.19 52.8333C105.19 53.7538 104.444 54.5 103.524 54.5Z" fill="black"/>
<path d="M54.5239 2.16634C54.5239 3.08682 53.7777 3.83301 52.8573 3.83301C51.9368 3.83301 51.1906 3.08682 51.1906 2.16634C51.1906 1.24587 51.9368 0.499674 52.8573 0.499674C53.7777 0.499674 54.5239 1.24587 54.5239 2.16634Z" fill="black"/>
<path d="M2.19059 54.5C1.27012 54.5 0.523926 53.7538 0.523926 52.8333C0.523926 51.9129 1.27012 51.1667 2.19059 51.1667C3.11107 51.1667 3.85726 51.9129 3.85726 52.8333C3.85726 53.7538 3.11107 54.5 2.19059 54.5Z" fill="black"/>
</svg>
